{
  "source": "C:\\Users\\Peter\\Desktop\\stuff\\MIUN\\quantitative_research\\video_compression\\videos\\BVI-HD\\BVI-HD_CDVL_videos\\ORIG\\Surfers_1920x1080_30fps.mp4",
  "output": "C:\\Users\\Peter\\Desktop\\stuff\\MIUN\\quantitative_research\\video_compression\\compressed_videos\\BVI-HD\\av1\\1.5\\Surfers_1920x1080_30fps_av1.mkv",
  "codec": "av1",
  "ok": "Input #0, mov,mp4,m4a,3gp,3g2,mj2, from 'C:\\Users\\Peter\\Desktop\\stuff\\MIUN\\quantitative_research\\video_compression\\videos\\BVI-HD\\BVI-HD_CDVL_videos\\ORIG\\Surfers_1920x1080_30fps.mp4':\n  Metadata:\n    major_brand     : isom\n    minor_version   : 512\n    compatible_brands: isomiso2avc1mp41\n    encoder         : Lavf54.28.101\n  Duration: 00:00:05.00, start: 0.000000, bitrate: 232762 kb/s\n  Stream #0:0[0x1](und): Video: h264 (High 4:4:4 Predictive) (avc1 / 0x31637661), yuv420p(progressive), 1920x1080, 232759 kb/s, 30 fps, 30 tbr, 30 tbn (default)\n    Metadata:\n      handler_name    : VideoHandler\n      vendor_id       : [0][0][0][0]\n[out#0/matroska @ 0000023b883a1200] Codec AVOption b:a (set bitrate (in bits/s)) has not been used for any stream. The most likely reason is either wrong type (e.g. a video option with no video streams) or that it is a private option of some decoder which was not actually used for any stream.\nStream mapping:\n  Stream #0:0 -> #0:0 (h264 (native) -> av1 (libsvtav1))\nPress [q] to stop, [?] for help\nSvt[info]: -------------------------------------------\nSvt[info]: SVT [version]:\tSVT-AV1 Encoder Lib v3.1.0-19-g6ecfe8ec\nSvt[info]: SVT [build]  :\tGCC 15.2.0\t 64 bit\nSvt[info]: LIB Build date: Aug 17 2025 11:37:13\nSvt[info]: -------------------------------------------\nSvt[info]: Level of Parallelism: 5\nSvt[info]: Number of PPCS 93\nSvt[info]: [asm level on system : up to avx2]\nSvt[info]: [asm level selected : up to avx2]\nSvt[info]: -------------------------------------------\nSvt[info]: SVT [config]: main profile\ttier (auto)\tlevel (auto)\nSvt[info]: SVT [config]: width / height / fps numerator / fps denominator \t\t: 1920 / 1080 / 30 / 1\nSvt[info]: SVT [config]: bit-depth / color format \t\t\t\t\t: 8 / YUV420\nSvt[info]: SVT [config]: preset / tune / pred struct \t\t\t\t\t: 4 / PSNR / random access\nSvt[info]: SVT [config]: gop size / mini-gop size / key-frame type \t\t\t: 161 / 16 / key frame\nSvt[info]: SVT [config]: BRC mode / target bitrate (kbps)\t\t\t\t: VBR / 1500 \nSvt[info]: SVT [config]: AQ mode / Variance Boost \t\t\t\t\t: 2 / 0\nSvt[info]: SVT [config]: sharpness / luminance-based QP bias \t\t\t\t: 0 / 0\nSvt[info]: SVT [config]: QP scale compress strength \t\t\t\t\t: 0\nSvt[info]: -------------------------------------------\nOutput #0, matroska, to 'C:\\Users\\Peter\\Desktop\\stuff\\MIUN\\quantitative_research\\video_compression\\compressed_videos\\BVI-HD\\av1\\1.5\\Surfers_1920x1080_30fps_av1.mkv':\n  Metadata:\n    major_brand     : isom\n    minor_version   : 512\n    compatible_brands: isomiso2avc1mp41\n    encoder         : Lavf62.3.100\n  Stream #0:0(und): Video: av1 (AV01 / 0x31305641), yuv420p(tv, progressive), 1920x1080, q=2-31, 1500 kb/s, 30 fps, 1k tbn (default)\n    Metadata:\n      encoder         : Lavc62.11.100 libsvtav1\n      handler_name    : VideoHandler\n      vendor_id       : [0][0][0][0]\n    Side data:\n      cpb: bitrate max/min/avg: 0/0/1500000 buffer size: 1500000 vbv_delay: N/A\nframe=    0 fps=0.0 q=0.0 size=       0KiB time=N/A bitrate=N/A speed=N/A elapsed=0:00:01.04    \nframe=    0 fps=0.0 q=0.0 size=       0KiB time=N/A bitrate=N/A speed=N/A elapsed=0:00:01.56    \nframe=    0 fps=0.0 q=0.0 size=       0KiB time=N/A bitrate=N/A speed=N/A elapsed=0:00:02.12    \nframe=    0 fps=0.0 q=0.0 size=       0KiB time=N/A bitrate=N/A speed=N/A elapsed=0:00:02.63    \nframe=    1 fps=0.3 q=30.0 size=       1KiB time=00:00:00.00 bitrate=N/A speed=   0x elapsed=0:00:03.15    \nframe=    1 fps=0.3 q=30.0 size=       1KiB time=00:00:00.00 bitrate=N/A speed=   0x elapsed=0:00:03.68    \nframe=    4 fps=0.9 q=49.0 size=       1KiB time=00:00:00.10 bitrate=  57.0kbits/s speed=0.0236x elapsed=0:00:04.23    \nframe=    7 fps=1.5 q=44.0 size=       1KiB time=00:00:00.20 bitrate=  28.5kbits/s speed=0.0421x elapsed=0:00:04.74    \nframe=   10 fps=1.9 q=44.0 size=       1KiB time=00:00:00.30 bitrate=  19.0kbits/s speed=0.057x elapsed=0:00:05.26    \nframe=   14 fps=2.4 q=44.0 size=       1KiB time=00:00:00.43 bitrate=  13.2kbits/s speed=0.0749x elapsed=0:00:05.78    \nframe=   19 fps=3.0 q=44.0 size=       1KiB time=00:00:00.60 bitrate=   9.5kbits/s speed=0.0953x elapsed=0:00:06.29    \nframe=   22 fps=3.2 q=46.0 size=       1KiB time=00:00:00.70 bitrate=   8.1kbits/s speed=0.103x elapsed=0:00:06.81    \nframe=   24 fps=3.3 q=47.0 size=       1KiB time=00:00:00.76 bitrate=   7.4kbits/s speed=0.104x elapsed=0:00:07.35    \nframe=   29 fps=3.7 q=42.0 size=       1KiB time=00:00:00.93 bitrate=   6.1kbits/s speed=0.118x elapsed=0:00:07.89    \nframe=   32 fps=3.8 q=47.0 size=       1KiB time=00:00:01.03 bitrate=   5.5kbits/s speed=0.122x elapsed=0:00:08.45    \nframe=   36 fps=4.0 q=48.0 size=       1KiB time=00:00:01.16 bitrate=   4.9kbits/s speed=0.13x elapsed=0:00:08.98    \nframe=   38 fps=4.0 q=48.0 size=       1KiB time=00:00:01.23 bitrate=   4.6kbits/s speed=0.129x elapsed=0:00:09.54    \nframe=   39 fps=3.8 q=46.0 size=       1KiB time=00:00:01.26 bitrate=   4.5kbits/s speed=0.125x elapsed=0:00:10.13    \nframe=   42 fps=3.9 q=49.0 size=       1KiB time=00:00:01.36 bitrate=   4.2kbits/s speed=0.127x elapsed=0:00:10.73    \nframe=   44 fps=3.9 q=49.0 size=       1KiB time=00:00:01.43 bitrate=   4.0kbits/s speed=0.127x elapsed=0:00:11.31    \nframe=   48 fps=4.0 q=48.0 size=       1KiB time=00:00:01.56 bitrate=   3.6kbits/s speed=0.132x elapsed=0:00:11.89    \nframe=   52 fps=4.2 q=50.0 size=       1KiB time=00:00:01.70 bitrate=   3.4kbits/s speed=0.137x elapsed=0:00:12.43    \nframe=   57 fps=4.4 q=42.0 size=       1KiB time=00:00:01.86 bitrate=   3.1kbits/s speed=0.144x elapsed=0:00:13.00    \nframe=   57 fps=4.2 q=42.0 size=       1KiB time=00:00:01.86 bitrate=   3.1kbits/s speed=0.138x elapsed=0:00:13.52    \nframe=   61 fps=4.3 q=44.0 size=       1KiB time=00:00:02.00 bitrate=   2.9kbits/s speed=0.142x elapsed=0:00:14.05    \nframe=   69 fps=4.7 q=48.0 size=       1KiB time=00:00:02.26 bitrate=   2.5kbits/s speed=0.155x elapsed=0:00:14.59    \nframe=   73 fps=4.8 q=44.0 size=       1KiB time=00:00:02.40 bitrate=   2.4kbits/s speed=0.159x elapsed=0:00:15.11    \nframe=   75 fps=4.8 q=48.0 size=       1KiB time=00:00:02.46 bitrate=   2.3kbits/s speed=0.158x elapsed=0:00:15.65    \nframe=   81 fps=5.0 q=37.0 size=       1KiB time=00:00:02.66 bitrate=   2.1kbits/s speed=0.165x elapsed=0:00:16.16    \nframe=   85 fps=5.1 q=49.0 size=       1KiB time=00:00:02.80 bitrate=   2.0kbits/s speed=0.168x elapsed=0:00:16.68    \nframe=   89 fps=5.2 q=45.0 size=       1KiB time=00:00:02.93 bitrate=   1.9kbits/s speed=0.17x elapsed=0:00:17.20    \nframe=   93 fps=5.2 q=46.0 size=       1KiB time=00:00:03.06 bitrate=   1.9kbits/s speed=0.173x elapsed=0:00:17.74    \nframe=   97 fps=5.3 q=37.0 size=       1KiB time=00:00:03.20 bitrate=   1.8kbits/s speed=0.175x elapsed=0:00:18.24    \nframe=  105 fps=5.6 q=45.0 size=       1KiB time=00:00:03.46 bitrate=   1.6kbits/s speed=0.185x elapsed=0:00:18.76    \nframe=  105 fps=5.4 q=45.0 size=       1KiB time=00:00:03.46 bitrate=   1.6kbits/s speed=0.18x elapsed=0:00:19.28    \nframe=  109 fps=5.5 q=46.0 size=       1KiB time=00:00:03.60 bitrate=   1.6kbits/s speed=0.182x elapsed=0:00:19.79    \nframe=  115 fps=5.7 q=49.0 size=       1KiB time=00:00:03.80 bitrate=   1.5kbits/s speed=0.187x elapsed=0:00:20.33    \nframe=  121 fps=5.8 q=46.0 size=       1KiB time=00:00:04.00 bitrate=   1.4kbits/s speed=0.192x elapsed=0:00:20.85    \nframe=  123 fps=5.8 q=50.0 size=       1KiB time=00:00:04.06 bitrate=   1.4kbits/s speed=0.19x elapsed=0:00:21.36    \nframe=  127 fps=5.8 q=50.0 size=       1KiB time=00:00:04.20 bitrate=   1.4kbits/s speed=0.192x elapsed=0:00:21.87    \nframe=  133 fps=5.9 q=52.0 size=       1KiB time=00:00:04.40 bitrate=   1.3kbits/s speed=0.197x elapsed=0:00:22.38    \nframe=  137 fps=6.0 q=48.0 size=       1KiB time=00:00:04.53 bitrate=   1.3kbits/s speed=0.198x elapsed=0:00:22.90    \nframe=  141 fps=6.0 q=52.0 size=       1KiB time=00:00:04.66 bitrate=   1.2kbits/s speed=0.199x elapsed=0:00:23.42    \n[out#0/matroska @ 0000023b883a1200] video:982KiB audio:0KiB subtitle:0KiB other streams:0KiB global headers:0KiB muxing overhead: 0.144287%\nframe=  150 fps=6.3 q=52.0 Lsize=     983KiB time=00:00:04.96 bitrate=1622.2kbits/s speed=0.21x elapsed=0:00:23.66    \n",
  "seconds": 24.108217000961304,
  "probe_out": {}
}